<svg width="960" height="720" viewBox="0 0 960 720" fill="none" xmlns="http://www.w3.org/2000/svg">
  <defs>
    <radialGradient id="bgGlow" cx="50%" cy="50%" r="55%">
      <stop offset="0%" stop-color="#86D75D" stop-opacity=".34"/>
      <stop offset="38%" stop-color="#4A7F39" stop-opacity=".18"/>
      <stop offset="100%" stop-color="#020402" stop-opacity="0"/>
    </radialGradient>

    <linearGradient id="tileFace" x1="220" y1="120" x2="720" y2="640" gradientUnits="userSpaceOnUse">
      <stop offset="0" stop-color="#273126"/>
      <stop offset=".48" stop-color="#10170F"/>
      <stop offset="1" stop-color="#060A07"/>
    </linearGradient>

    <linearGradient id="tileEdge" x1="210" y1="130" x2="740" y2="660" gradientUnits="userSpaceOnUse">
      <stop offset="0" stop-color="#4C5C4A"/>
      <stop offset=".28" stop-color="#111812"/>
      <stop offset="1" stop-color="#020302"/>
    </linearGradient>

    <linearGradient id="green" x1="270" y1="150" x2="650" y2="570" gradientUnits="userSpaceOnUse">
      <stop offset="0" stop-color="#C8FF74"/>
      <stop offset=".45" stop-color="#83D94D"/>
      <stop offset="1" stop-color="#3E7F2F"/>
    </linearGradient>

    <linearGradient id="greenDark" x1="310" y1="210" x2="660" y2="590" gradientUnits="userSpaceOnUse">
      <stop offset="0" stop-color="#1B3418"/>
      <stop offset="1" stop-color="#071009"/>
    </linearGradient>

    <filter id="softShadow" x="-20%" y="-20%" width="140%" height="150%">
      <feDropShadow dx="0" dy="34" stdDeviation="28" flood-color="#000000" flood-opacity=".58"/>
    </filter>

    <filter id="greenGlow" x="-40%" y="-40%" width="180%" height="180%">
      <feGaussianBlur stdDeviation="9" result="blur"/>
      <feColorMatrix in="blur" type="matrix" values="0 0 0 0 0.49  0 0 0 0 0.95  0 0 0 0 0.28  0 0 0 .85 0" result="glow"/>
      <feMerge>
        <feMergeNode in="glow"/>
        <feMergeNode in="SourceGraphic"/>
      </feMerge>
    </filter>

    <pattern id="pixels" width="38" height="38" patternUnits="userSpaceOnUse">
      <rect width="38" height="38" fill="transparent"/>
      <rect x="0" y="0" width="19" height="19" fill="#FFFFFF" opacity=".035"/>
      <rect x="19" y="19" width="19" height="19" fill="#FFFFFF" opacity=".025"/>
    </pattern>
  </defs>

  <rect width="960" height="720" fill="transparent"/>
  <ellipse cx="480" cy="382" rx="420" ry="260" fill="url(#bgGlow)"/>

  <g opacity=".34">
    <ellipse cx="485" cy="390" rx="360" ry="82" stroke="#7DCE52" stroke-width="2"/>
    <ellipse cx="485" cy="390" rx="270" ry="58" stroke="#7DCE52" stroke-width="1" opacity=".52"/>
  </g>

  <g opacity=".7">
    <path d="M126 513h148v72H126z" fill="#081009" stroke="#7DA765" stroke-opacity=".38" rx="20"/>
    <rect x="146" y="535" width="40" height="7" rx="4" fill="#9BE564"/>
    <text x="146" y="562" fill="#EAF5E3" font-family="Segoe UI, Arial, sans-serif" font-size="18" font-weight="800">MODS</text>

    <path d="M715 154h145v72H715z" fill="#081009" stroke="#7DA765" stroke-opacity=".38" rx="20"/>
    <rect x="735" y="176" width="40" height="7" rx="4" fill="#9BE564"/>
    <text x="735" y="203" fill="#EAF5E3" font-family="Segoe UI, Arial, sans-serif" font-size="18" font-weight="800">SHADERS</text>
  </g>

  <g filter="url(#softShadow)">
    <path d="M256 146c17-21 45-33 74-28l344 61c42 7 74 40 81 82l49 276c8 47-26 89-74 89H289c-39 0-72-28-79-66l-55-312c-6-36 12-74 45-91l56-11Z" fill="url(#tileEdge)"/>
    <path d="M285 112h386c42 0 76 34 76 76v343c0 42-34 76-76 76H285c-42 0-76-34-76-76V188c0-42 34-76 76-76Z" fill="url(#tileFace)" stroke="#D7EACF" stroke-opacity=".11" stroke-width="2"/>
    <path d="M285 112h386c42 0 76 34 76 76v343c0 42-34 76-76 76H285c-42 0-76-34-76-76V188c0-42 34-76 76-76Z" fill="url(#pixels)"/>

    <rect x="248" y="151" width="460" height="417" rx="54" fill="#07100A" stroke="#86D75D" stroke-opacity=".55" stroke-width="4"/>
    <rect x="276" y="179" width="404" height="361" rx="38" fill="url(#greenDark)" stroke="#B9F47B" stroke-opacity=".20"/>
    <rect x="276" y="179" width="404" height="361" rx="38" fill="url(#pixels)" opacity=".8"/>

    <g filter="url(#greenGlow)">
      <path d="M342 484V241h72l137 151V241h72v243h-65L414 324v160h-72Z" fill="url(#green)"/>
      <path d="M342 484V241h72l137 151V241h72v243h-65L414 324v160h-72Z" stroke="#E3FFB7" stroke-opacity=".38" stroke-width="4"/>
    </g>

    <path d="M273 199c0-12 10-22 22-22h353c12 0 22 10 22 22v7H273v-7Z" fill="#FFFFFF" opacity=".06"/>
    <path d="M715 255c0-12 10-21 22-21h10v146h-32V255Z" fill="#77D552" opacity=".55"/>
    <path d="M727 408h20v70h-20z" rx="8" fill="#77D552" opacity=".32"/>
  </g>

  <g opacity=".9">
    <path d="M118 228 163 217l35 24-7 51-45 12-35-25 7-51Z" fill="#79B650"/>
    <path d="M118 228 163 217l35 24-45 12-35-25Z" fill="#99D968"/>
    <path d="M111 279 153 253l38 39-45 12-35-25Z" fill="#5B3E28"/>
    <path d="M770 520 825 504l42 30-9 62-55 16-42-31 9-61Z" fill="#78B14D"/>
    <path d="M770 520 825 504l42 30-55 16-42-30Z" fill="#9BDA67"/>
    <path d="M761 581 812 550l46 46-55 16-42-31Z" fill="#5C3D27"/>
    <rect x="785" y="95" width="28" height="28" rx="7" fill="#83D94D" opacity=".42"/>
    <rect x="170" y="126" width="18" height="18" rx="5" fill="#83D94D" opacity=".50"/>
    <rect x="835" y="322" width="20" height="20" rx="6" fill="#83D94D" opacity=".38"/>
  </g>
</svg>
