<svg xmlns="http://www.w3.org/2000/svg" width="1200" height="630" viewBox="0 0 1200 630">
  <defs>
    <linearGradient id="bg" x1="0" y1="0" x2="1" y2="1">
      <stop offset="0" stop-color="#090d0a"/>
      <stop offset="0.55" stop-color="#0b1110"/>
      <stop offset="1" stop-color="#101820"/>
    </linearGradient>
    <pattern id="grid" width="44" height="44" patternUnits="userSpaceOnUse">
      <path d="M44 0H0V44" fill="none" stroke="#e6ece3" stroke-opacity="0.08"/>
    </pattern>
  </defs>
  <rect width="1200" height="630" fill="url(#bg)"/>
  <rect width="1200" height="630" fill="url(#grid)" opacity="0.7"/>
  <rect x="70" y="70" width="1060" height="490" rx="34" fill="#0e1412" stroke="#849570" stroke-opacity=".35"/>
  <rect x="110" y="112" width="90" height="90" rx="24" fill="#0d1d13" stroke="#44b760" stroke-width="6"/>
  <path d="M138 177v-47h12l22 27v-27h12v47h-12l-22-27v27z" fill="#65e486"/>
  <text x="225" y="150" fill="#f4f7ec" font-family="Segoe UI, Arial" font-size="40" font-weight="900" letter-spacing="8">NEXUS</text>
  <text x="225" y="190" fill="#b8c6b1" font-family="Segoe UI, Arial" font-size="22">Minecraft Launcher</text>
  <text x="110" y="330" fill="#f4f7ec" font-family="Segoe UI, Arial" font-size="72" font-weight="900">Nexus Launcher</text>
  <text x="113" y="388" fill="#b8c6b1" font-family="Segoe UI, Arial" font-size="30">Сборки • Моды • Шейдеры • Обновления</text>
  <rect x="760" y="190" width="290" height="230" rx="28" fill="#111916" stroke="#849570" stroke-opacity=".45"/>
  <rect x="790" y="230" width="50" height="50" rx="15" fill="#4a7f39"/>
  <rect x="790" y="300" width="230" height="42" rx="12" fill="#16221b"/>
  <rect x="790" y="360" width="105" height="42" rx="12" fill="#16221b"/>
  <rect x="915" y="360" width="105" height="42" rx="12" fill="#16221b"/>
</svg>
